<?xml version="1.0" encoding="UTF-8" standalone="no"?>
<!-- Created with Inkscape (http://www.inkscape.org/) -->

<svg
   width="48"
   height="48"
   viewBox="0 0 48 48"
   version="1.1"
   id="svg1"
   xmlns="http://www.w3.org/2000/svg"
   xmlns:svg="http://www.w3.org/2000/svg">
  <defs
     id="defs1" />
  <g
     id="layer1">
    <path
       d="M 4.1363636,10 C 2.3988182,10 1,11.440924 1,13.23077 V 34.76923 C 1,36.559076 2.3988182,38 4.1363636,38 H 43.863636 C 45.601182,38 47,36.559076 47,34.76923 V 13.23077 C 47,11.440924 45.601182,10 43.863636,10 Z m 1.0454546,2.153846 h 4.1818182 c 0.5791818,0 1.0454536,0.480308 1.0454536,1.076924 v 4.307692 c 0,0.596614 -0.4662718,1.076922 -1.0454536,1.076922 H 5.1818182 c -0.5791818,0 -1.0454546,-0.480308 -1.0454546,-1.076922 V 13.23077 c 0,-0.596616 0.4662728,-1.076924 1.0454546,-1.076924 z m 8.3636358,0 h 4.181818 c 0.579182,0 1.045456,0.480308 1.045456,1.076924 v 4.307692 c 0,0.596614 -0.466274,1.076922 -1.045456,1.076922 H 13.545454 C 12.966272,18.615384 12.5,18.135076 12.5,17.538462 V 13.23077 c 0,-0.596616 0.466272,-1.076924 1.045454,-1.076924 z m 8.363636,0 h 4.18182 c 0.57918,0 1.045454,0.480308 1.045454,1.076924 v 4.307692 c 0,0.596614 -0.466274,1.076922 -1.045454,1.076922 h -4.18182 c -0.57918,0 -1.045454,-0.480308 -1.045454,-1.076922 V 13.23077 c 0,-0.596616 0.466274,-1.076924 1.045454,-1.076924 z m 8.363638,0 h 4.181818 c 0.579182,0 1.045454,0.480308 1.045454,1.076924 v 4.307692 c 0,0.596614 -0.466272,1.076922 -1.045454,1.076922 h -4.181818 c -0.579182,0 -1.045456,-0.480308 -1.045456,-1.076922 V 13.23077 c 0,-0.596616 0.466274,-1.076924 1.045456,-1.076924 z m 8.363636,0 h 4.181818 c 0.579182,0 1.045454,0.480308 1.045454,1.076924 v 4.307692 c 0,0.596614 -0.466272,1.076922 -1.045454,1.076922 h -4.181818 c -0.579182,0 -1.045454,-0.480308 -1.045454,-1.076922 V 13.23077 c 0,-0.596616 0.466272,-1.076924 1.045454,-1.076924 z M 5.1818182,20.76923 h 4.1818182 c 0.5791818,0 1.0454536,0.480308 1.0454536,1.076924 v 4.307692 c 0,0.596616 -0.4662718,1.076924 -1.0454536,1.076924 H 5.1818182 c -0.5791818,0 -1.0454546,-0.480308 -1.0454546,-1.076924 v -4.307692 c 0,-0.596616 0.4662728,-1.076924 1.0454546,-1.076924 z m 8.3636358,0 h 4.181818 c 0.579182,0 1.045456,0.480308 1.045456,1.076924 v 4.307692 c 0,0.596616 -0.466274,1.076924 -1.045456,1.076924 H 13.545454 C 12.966272,27.23077 12.5,26.750462 12.5,26.153846 v -4.307692 c 0,-0.596616 0.466272,-1.076924 1.045454,-1.076924 z m 8.363636,0 h 4.18182 c 0.57918,0 1.045454,0.480308 1.045454,1.076924 v 4.307692 c 0,0.596616 -0.466274,1.076924 -1.045454,1.076924 h -4.18182 c -0.57918,0 -1.045454,-0.480308 -1.045454,-1.076924 v -4.307692 c 0,-0.596616 0.466274,-1.076924 1.045454,-1.076924 z m 8.363638,0 h 4.181818 c 0.579182,0 1.045454,0.480308 1.045454,1.076924 v 4.307692 c 0,0.596616 -0.466272,1.076924 -1.045454,1.076924 h -4.181818 c -0.579182,0 -1.045456,-0.480308 -1.045456,-1.076924 v -4.307692 c 0,-0.596616 0.466274,-1.076924 1.045456,-1.076924 z m 8.363636,0 h 4.181818 c 0.579182,0 1.045454,0.480308 1.045454,1.076924 v 4.307692 c 0,0.596616 -0.466272,1.076924 -1.045454,1.076924 h -4.181818 c -0.579182,0 -1.045454,-0.480308 -1.045454,-1.076924 v -4.307692 c 0,-0.596616 0.466272,-1.076924 1.045454,-1.076924 z M 5.1818182,29.384616 h 4.1818182 c 0.5791818,0 1.0454536,0.480308 1.0454536,1.076922 v 4.307692 c 0,0.596616 -0.4662718,1.076924 -1.0454536,1.076924 H 5.1818182 c -0.5791818,0 -1.0454546,-0.480308 -1.0454546,-1.076924 v -4.307692 c 0,-0.596614 0.4662728,-1.076922 1.0454546,-1.076922 z m 8.3636358,0 h 20.909092 c 0.579182,0 1.045454,0.480308 1.045454,1.076922 v 4.307692 c 0,0.596616 -0.466272,1.076924 -1.045454,1.076924 H 13.545454 C 12.966272,35.846154 12.5,35.365846 12.5,34.76923 v -4.307692 c 0,-0.596614 0.466272,-1.076922 1.045454,-1.076922 z m 25.09091,0 h 4.181818 c 0.579182,0 1.045454,0.480308 1.045454,1.076922 v 4.307692 c 0,0.596616 -0.466272,1.076924 -1.045454,1.076924 h -4.181818 c -0.579182,0 -1.045454,-0.480308 -1.045454,-1.076924 v -4.307692 c 0,-0.596614 0.466272,-1.076922 1.045454,-1.076922 z"
       style="fill:var(--alt1-color);stroke:var(--alt1-color);stroke-width:1;stroke-linecap:round;stroke-linejoin:round;stroke-dasharray:none;stroke-opacity:1"
       id="path13" />
  </g>
</svg>
