<?xml version="1.0" encoding="UTF-8" standalone="no"?>
<!-- Created with Inkscape (http://www.inkscape.org/) -->

<svg
   width="32"
   height="32"
   viewBox="0 0 32 32"
   version="1.1"
   id="svg1"
   xmlns="http://www.w3.org/2000/svg"
   xmlns:svg="http://www.w3.org/2000/svg">
  <g
     id="layer1">
    <path
       d="m 17.664062,4.7304687 c -0.178133,0.00134 -0.376732,0.013672 -0.615234,0.013672 -0.01052,0.00881 -0.01901,0.018442 -0.0293,0.027344 -0.752474,0.1297752 -1.318359,0.7220884 -1.318359,1.4394531 V 18.9375 c -0.65758,-0.21584 -1.369638,-0.325605 -2.097656,-0.328125 -0.566237,-0.002 -1.141816,0.06092 -1.710938,0.189453 -3.260395,0.756532 -5.4256632,3.427262 -4.8359374,5.964844 0.5892724,2.536336 3.7078184,3.979768 6.9667974,3.224609 2.962671,-0.686303 5.070698,-2.975638 4.927734,-5.351562 0.0032,-0.03752 0.0059,-0.07501 0.0059,-0.113282 V 11.169922 c 0.07953,0.07319 0.159203,0.146952 0.238281,0.214844 l 2.916016,2.503906 c 0.253557,0.217688 2.292486,1.757871 1.322266,4.728515 3.11362,0.649105 3.463467,-3.747272 2.347656,-5.445312 C 19.196644,5.1840066 18.910999,4.7211074 17.664062,4.7304687 Z"
       style="fill:var(--alt1-color);"
       id="path11" />
  </g>
</svg>
