<?xml version="1.0" encoding="UTF-8" standalone="no"?>
<!-- Created with Inkscape (http://www.inkscape.org/) -->

<svg
   width="32"
   height="32"
   viewBox="0 0 32 32"
   version="1.1"
   id="svg1"
   xmlns="http://www.w3.org/2000/svg"
   xmlns:svg="http://www.w3.org/2000/svg">
  <defs
     id="defs1" />
  <g
     id="layer1">
    <path
       style="fill:var(--alt1-color);stroke:none;stroke-width:1.7"
       id="path5"
       d="m 21.723369,5.6233381 c 1.145058,0.5947624 -1.317884,6.0341559 -0.651001,7.1387679 0.689611,1.142257 6.716362,1.673185 6.77577,3.006146 0.05745,1.289031 -5.884675,1.875757 -6.507856,3.005601 -0.644418,1.168349 1.90916,6.653132 0.784486,7.371061 -1.087608,0.694268 -4.56679,-4.158399 -5.856854,-4.133167 -1.334029,0.02609 -4.807202,4.979947 -5.991283,4.364915 -1.1450584,-0.594763 1.317884,-6.034156 0.651001,-7.138768 C 10.238021,18.095637 4.21127,17.564709 4.1518625,16.231748 4.0944129,14.942717 10.036537,14.355991 10.659718,13.226147 11.304136,12.057798 8.7505576,6.5730146 9.8752318,5.8550858 10.96284,5.1608176 14.442022,10.013485 15.732086,9.9882533 17.066115,9.9621619 20.539288,5.008306 21.723369,5.6233381 Z"
       transform="rotate(13.33616,9.8816038,17.954601)" />
    <path
       style="fill:var(--alt1-color);stroke:var(--alt1-color);stroke-width:1.3;stroke-linecap:round;stroke-linejoin:round;stroke-dasharray:none;stroke-opacity:1;paint-order:normal"
       d="M 19.758768,5.6869584 17.795321,9.0879552 16.521525,4.313848 Z"
       id="path6" />
    <path
       style="fill:var(--alt1-color);stroke:var(--alt1-color);stroke-width:1.3;stroke-linecap:round;stroke-linejoin:round;stroke-dasharray:none;stroke-opacity:1;paint-order:normal"
       d="M 5.7304518,22.474354 8.3825525,19.920471 3.9329061,19.580692 Z"
       id="path7" />
    <path
       style="fill:var(--alt1-color);stroke:var(--alt1-color);stroke-width:1.3;stroke-linecap:round;stroke-linejoin:round;stroke-dasharray:none;stroke-opacity:1;paint-order:normal"
       d="m 24.538926,26.082616 -2.143454,-3.159056 4.964685,1.580348 z"
       id="path7-7" />
  </g>
</svg>
