<?xml version="1.0" encoding="UTF-8" standalone="no"?>
<!-- Created with Inkscape (http://www.inkscape.org/) -->

<svg
   width="32"
   height="32"
   viewBox="0 0 32 32"
   version="1.1"
   id="svg1"
   xmlns="http://www.w3.org/2000/svg"
   xmlns:svg="http://www.w3.org/2000/svg">
  <g
     id="layer1">
    <path
       style="fill:var(--alt1-color);stroke:var(--alt1-color);stroke-width:2;stroke-linejoin:round;"
       d="m 9,6.1025342 c -3.878,0 -7,2.6168281 -7,7.0488278 0,4.432 3.135672,6.951172 7.013672,6.951172 H 18 c -1.020572,3.958546 -5,6 -5,6 5.049492,-0.08859 8.30774,-3.792697 9.804688,-6 h 0.208984 C 26.891672,20.102534 30,17.583362 30,13.151362 30,8.7193623 26.878,6.1025342 23,6.1025342 Z M 24,9.9951121 C 25.658213,9.9946511 27.002537,11.36259 27.001953,13.0498 27.001476,14.736247 25.657463,16.102995 24,16.102534 22.342537,16.102995 20.998524,14.736247 20.998047,13.0498 20.997463,11.36259 22.341787,9.9946511 24,9.9951121 Z m -16,0.002 c 1.6569592,0 3.000148,1.3667999 3,3.0527349 -9.11e-4,1.685171 -1.3437902,3.050781 -3,3.050781 -1.6562098,0 -2.9990886,-1.36561 -3,-3.050781 -1.484e-4,-1.685985 1.3430408,-3.0527849 3,-3.0527849 z m 8,0 c 1.656959,0 3.000148,1.3667999 3,3.0527349 -9.11e-4,1.685171 -1.34379,3.050781 -3,3.050781 -1.65621,0 -2.999089,-1.36561 -3,-3.050781 -1.48e-4,-1.685935 1.343041,-3.0527349 3,-3.0527349 z"
       id="path8" />
  </g>
</svg>
